%TF.GenerationSoftware,KiCad,Pcbnew,7.0.7*%
%TF.CreationDate,2023-11-20T17:20:15+01:00*%
%TF.ProjectId,nRF52832_qfaa_dcdc,6e524635-3238-4333-925f-716661615f64,rev?*%
%TF.SameCoordinates,Original*%
%TF.FileFunction,Copper,L2,Bot*%
%TF.FilePolarity,Positive*%
%FSLAX46Y46*%
G04 Gerber Fmt 4.6, Leading zero omitted, Abs format (unit mm)*
G04 Created by KiCad (PCBNEW 7.0.7) date 2023-11-20 17:20:15*
%MOMM*%
%LPD*%
G01*
G04 APERTURE LIST*
%TA.AperFunction,ComponentPad*%
%ADD10C,0.908000*%
%TD*%
%TA.AperFunction,ViaPad*%
%ADD11C,0.800000*%
%TD*%
%TA.AperFunction,Conductor*%
%ADD12C,0.400000*%
%TD*%
G04 APERTURE END LIST*
D10*
%TO.P,U1,PAD@VIA16,VSS@45*%
%TO.N,GND*%
X151301100Y-107803600D03*
%TO.P,U1,PAD@VIA15,VSS@45*%
X151301100Y-106603600D03*
%TO.P,U1,PAD@VIA14,VSS@45*%
X151301100Y-105403600D03*
%TO.P,U1,PAD@VIA13,VSS@45*%
X151301100Y-104203600D03*
%TO.P,U1,PAD@VIA12,VSS@45*%
X150101100Y-107803600D03*
%TO.P,U1,PAD@VIA11,VSS@45*%
X150101100Y-106603600D03*
%TO.P,U1,PAD@VIA10,VSS@45*%
X150101100Y-105403600D03*
%TO.P,U1,PAD@VIA09,VSS@45*%
X150101100Y-104203600D03*
%TO.P,U1,PAD@VIA08,VSS@45*%
X148901100Y-107803600D03*
%TO.P,U1,PAD@VIA07,VSS@45*%
X148901100Y-106603600D03*
%TO.P,U1,PAD@VIA06,VSS@45*%
X148901100Y-105403600D03*
%TO.P,U1,PAD@VIA05,VSS@45*%
X148901100Y-104203600D03*
%TO.P,U1,PAD@VIA04,VSS@45*%
X147701100Y-107803600D03*
%TO.P,U1,PAD@VIA03,VSS@45*%
X147701100Y-106603600D03*
%TO.P,U1,PAD@VIA02,VSS@45*%
X147701100Y-105403600D03*
%TO.P,U1,PAD@VIA01,VSS@45*%
X147701100Y-104203600D03*
%TD*%
D11*
%TO.N,VCC*%
X152501100Y-102303600D03*
X145701100Y-101203600D03*
X146901100Y-111103600D03*
%TO.N,GND*%
X139401100Y-109103600D03*
X139401100Y-111103600D03*
X144901100Y-110103600D03*
X155201100Y-111103600D03*
X157601100Y-111103600D03*
X155201100Y-108303600D03*
X157601100Y-98903600D03*
X143301100Y-98903600D03*
X139401100Y-98903600D03*
X157101100Y-105603600D03*
X157101100Y-107603600D03*
X146001100Y-109103600D03*
X145801100Y-111103600D03*
X153501100Y-99303600D03*
X154601100Y-99103600D03*
X157601100Y-102303600D03*
X143401100Y-103503600D03*
X156801100Y-103703600D03*
X156801100Y-102703600D03*
X152401100Y-99303600D03*
X142901100Y-102303600D03*
X140101100Y-100003600D03*
X140101100Y-102403600D03*
%TD*%
D12*
%TO.N,VCC*%
X151201100Y-101203600D02*
X152501100Y-102303600D01*
X145701100Y-101203600D02*
X151201100Y-101203600D01*
X146901100Y-108403600D02*
X146901100Y-111103600D01*
X145701100Y-107203600D02*
X146901100Y-108403600D01*
X145701100Y-101203600D02*
X145701100Y-107203600D01*
%TD*%
%TA.AperFunction,Conductor*%
%TO.N,GND*%
G36*
X158449166Y-98046413D02*
G01*
X158474476Y-98090250D01*
X158475600Y-98103100D01*
X158475600Y-111904100D01*
X158458287Y-111951666D01*
X158414450Y-111976976D01*
X158401600Y-111978100D01*
X138600600Y-111978100D01*
X138553034Y-111960787D01*
X138527724Y-111916950D01*
X138526600Y-111904100D01*
X138526600Y-101203599D01*
X145145850Y-101203599D01*
X145164769Y-101347308D01*
X145220238Y-101481223D01*
X145220240Y-101481227D01*
X145308477Y-101596219D01*
X145308480Y-101596222D01*
X145321647Y-101606325D01*
X145348846Y-101649016D01*
X145350600Y-101665034D01*
X145350600Y-107159574D01*
X145349025Y-107174759D01*
X145346057Y-107188911D01*
X145346057Y-107188915D01*
X145350316Y-107223079D01*
X145350600Y-107227660D01*
X145350600Y-107232647D01*
X145354187Y-107254140D01*
X145360527Y-107304993D01*
X145360529Y-107304997D01*
X145362276Y-107310865D01*
X145361934Y-107310966D01*
X145362680Y-107313295D01*
X145363016Y-107313180D01*
X145365007Y-107318980D01*
X145389395Y-107364045D01*
X145411901Y-107410083D01*
X145415466Y-107415076D01*
X145415175Y-107415283D01*
X145416633Y-107417239D01*
X145416916Y-107417020D01*
X145420681Y-107421858D01*
X145438748Y-107438489D01*
X145458375Y-107456557D01*
X146528926Y-108527108D01*
X146550318Y-108572983D01*
X146550600Y-108579433D01*
X146550600Y-110642165D01*
X146533287Y-110689731D01*
X146521650Y-110700872D01*
X146508481Y-110710976D01*
X146420238Y-110825976D01*
X146364769Y-110959891D01*
X146345850Y-111103599D01*
X146364769Y-111247308D01*
X146420238Y-111381223D01*
X146420239Y-111381225D01*
X146508479Y-111496221D01*
X146623475Y-111584461D01*
X146757391Y-111639930D01*
X146901100Y-111658850D01*
X147044809Y-111639930D01*
X147178725Y-111584461D01*
X147293721Y-111496221D01*
X147381961Y-111381225D01*
X147437430Y-111247309D01*
X147456350Y-111103600D01*
X147437430Y-110959891D01*
X147381961Y-110825975D01*
X147293721Y-110710979D01*
X147293719Y-110710977D01*
X147293718Y-110710976D01*
X147280550Y-110700872D01*
X147253354Y-110658180D01*
X147251600Y-110642165D01*
X147251600Y-108447620D01*
X147253175Y-108432434D01*
X147256142Y-108418285D01*
X147251883Y-108384123D01*
X147251600Y-108379545D01*
X147251600Y-108374564D01*
X147251599Y-108374553D01*
X147248010Y-108353049D01*
X147241673Y-108302207D01*
X147241671Y-108302204D01*
X147239922Y-108296325D01*
X147240266Y-108296222D01*
X147239522Y-108293900D01*
X147239182Y-108294017D01*
X147237192Y-108288219D01*
X147212804Y-108243155D01*
X147190298Y-108197116D01*
X147190293Y-108197111D01*
X147186732Y-108192122D01*
X147187023Y-108191913D01*
X147185565Y-108189958D01*
X147185283Y-108190179D01*
X147181518Y-108185342D01*
X147143824Y-108150642D01*
X146073274Y-107080091D01*
X146051882Y-107034215D01*
X146051600Y-107027766D01*
X146051600Y-101665034D01*
X146068913Y-101617468D01*
X146080553Y-101606325D01*
X146081017Y-101605968D01*
X146093721Y-101596221D01*
X146103827Y-101583050D01*
X146146520Y-101555854D01*
X146162535Y-101554100D01*
X151045601Y-101554100D01*
X151093167Y-101571413D01*
X151093401Y-101571609D01*
X151922432Y-102273096D01*
X151947560Y-102317038D01*
X151947999Y-102319928D01*
X151964769Y-102447308D01*
X152020238Y-102581223D01*
X152020239Y-102581225D01*
X152108479Y-102696221D01*
X152223475Y-102784461D01*
X152357391Y-102839930D01*
X152501100Y-102858850D01*
X152644809Y-102839930D01*
X152778725Y-102784461D01*
X152893721Y-102696221D01*
X152981961Y-102581225D01*
X153037430Y-102447309D01*
X153056350Y-102303600D01*
X153037430Y-102159891D01*
X152981961Y-102025975D01*
X152893721Y-101910979D01*
X152778725Y-101822739D01*
X152778723Y-101822738D01*
X152644808Y-101767269D01*
X152520018Y-101750840D01*
X152501100Y-101748350D01*
X152501099Y-101748350D01*
X152435269Y-101757016D01*
X152385850Y-101746060D01*
X152377815Y-101740143D01*
X151913557Y-101347309D01*
X151474792Y-100976046D01*
X151466965Y-100967188D01*
X151466690Y-100967442D01*
X151462537Y-100962931D01*
X151422044Y-100931414D01*
X151405338Y-100917278D01*
X151405329Y-100917271D01*
X151401123Y-100914768D01*
X151397319Y-100912170D01*
X151389353Y-100905970D01*
X151370226Y-100891083D01*
X151369607Y-100890870D01*
X151356445Y-100886351D01*
X151342630Y-100879951D01*
X151330117Y-100872503D01*
X151296511Y-100865472D01*
X151292071Y-100864250D01*
X151259589Y-100853100D01*
X151259588Y-100853100D01*
X151245022Y-100853100D01*
X151229869Y-100851532D01*
X151227030Y-100850938D01*
X151215617Y-100848550D01*
X151185230Y-100852353D01*
X151181554Y-100852813D01*
X151176958Y-100853100D01*
X146162535Y-100853100D01*
X146114969Y-100835787D01*
X146103828Y-100824150D01*
X146099472Y-100818474D01*
X146093721Y-100810979D01*
X145978725Y-100722739D01*
X145978723Y-100722738D01*
X145844808Y-100667269D01*
X145701100Y-100648350D01*
X145557391Y-100667269D01*
X145423476Y-100722738D01*
X145308479Y-100810979D01*
X145220238Y-100925976D01*
X145164769Y-101059891D01*
X145145850Y-101203599D01*
X138526600Y-101203599D01*
X138526600Y-98103100D01*
X138543913Y-98055534D01*
X138587750Y-98030224D01*
X138600600Y-98029100D01*
X158401600Y-98029100D01*
X158449166Y-98046413D01*
G37*
%TD.AperFunction*%
%TD*%
M02*
