M48
; DRILL file {KiCad 7.0.7} date Mon Nov 20 17:20:17 2023
; FORMAT={-:-/ absolute / inch / decimal}
; #@! TF.CreationDate,2023-11-20T17:20:17+01:00
; #@! TF.GenerationSoftware,Kicad,Pcbnew,7.0.7
; #@! TF.FileFunction,Plated,1,2,PTH
FMAT,2
INCH
; #@! TA.AperFunction,Plated,PTH,ViaDrill
T1C0.0157
; #@! TA.AperFunction,Plated,PTH,ComponentDrill
T2C0.0157
%
G90
G05
T1
X5.4882Y-3.8938
X5.4882Y-4.2954
X5.4882Y-4.3742
X5.5158Y-3.9371
X5.5158Y-4.0316
X5.626Y-4.0277
X5.6418Y-3.8938
X5.6457Y-4.0749
X5.7048Y-4.3348
X5.7363Y-3.9844
X5.7402Y-4.3742
X5.7481Y-4.2954
X5.7835Y-4.3742
X6.0Y-3.9096
X6.004Y-4.0277
X6.0434Y-3.9096
X6.0867Y-3.9017
X6.1103Y-4.2639
X6.1103Y-4.3742
X6.1733Y-4.0434
X6.1733Y-4.0828
X6.1851Y-4.1576
X6.1851Y-4.2364
X6.2048Y-3.8938
X6.2048Y-4.0277
X6.2048Y-4.3742
T2
X5.815Y-4.1025
X5.815Y-4.1497
X5.815Y-4.197
X5.815Y-4.2442
X5.8622Y-4.1025
X5.8622Y-4.1497
X5.8622Y-4.197
X5.8622Y-4.2442
X5.9095Y-4.1025
X5.9095Y-4.1497
X5.9095Y-4.197
X5.9095Y-4.2442
X5.9567Y-4.1025
X5.9567Y-4.1497
X5.9567Y-4.197
X5.9567Y-4.2442
T0
M30
