%TF.GenerationSoftware,KiCad,Pcbnew,7.0.7*%
%TF.CreationDate,2023-11-20T17:20:15+01:00*%
%TF.ProjectId,nRF52832_qfaa_dcdc,6e524635-3238-4333-925f-716661615f64,rev?*%
%TF.SameCoordinates,Original*%
%TF.FileFunction,Paste,Top*%
%TF.FilePolarity,Positive*%
%FSLAX46Y46*%
G04 Gerber Fmt 4.6, Leading zero omitted, Abs format (unit mm)*
G04 Created by KiCad (PCBNEW 7.0.7) date 2023-11-20 17:20:15*
%MOMM*%
%LPD*%
G01*
G04 APERTURE LIST*
G04 Aperture macros list*
%AMRoundRect*
0 Rectangle with rounded corners*
0 $1 Rounding radius*
0 $2 $3 $4 $5 $6 $7 $8 $9 X,Y pos of 4 corners*
0 Add a 4 corners polygon primitive as box body*
4,1,4,$2,$3,$4,$5,$6,$7,$8,$9,$2,$3,0*
0 Add four circle primitives for the rounded corners*
1,1,$1+$1,$2,$3*
1,1,$1+$1,$4,$5*
1,1,$1+$1,$6,$7*
1,1,$1+$1,$8,$9*
0 Add four rect primitives between the rounded corners*
20,1,$1+$1,$2,$3,$4,$5,0*
20,1,$1+$1,$4,$5,$6,$7,0*
20,1,$1+$1,$6,$7,$8,$9,0*
20,1,$1+$1,$8,$9,$2,$3,0*%
G04 Aperture macros list end*
%ADD10RoundRect,0.250000X-0.262500X-0.450000X0.262500X-0.450000X0.262500X0.450000X-0.262500X0.450000X0*%
%ADD11RoundRect,0.243750X-0.243750X-0.456250X0.243750X-0.456250X0.243750X0.456250X-0.243750X0.456250X0*%
%ADD12R,4.700000X4.700000*%
%ADD13RoundRect,0.030000X-0.070000X0.295000X-0.070000X-0.295000X0.070000X-0.295000X0.070000X0.295000X0*%
%ADD14RoundRect,0.030000X0.295000X0.070000X-0.295000X0.070000X-0.295000X-0.070000X0.295000X-0.070000X0*%
%ADD15RoundRect,0.030000X0.070000X-0.295000X0.070000X0.295000X-0.070000X0.295000X-0.070000X-0.295000X0*%
%ADD16RoundRect,0.030000X-0.295000X-0.070000X0.295000X-0.070000X0.295000X0.070000X-0.295000X0.070000X0*%
%ADD17R,0.950000X0.850000*%
%ADD18R,0.600000X0.600000*%
%ADD19R,1.050000X0.900000*%
%ADD20R,0.900000X1.050000*%
%ADD21R,1.800000X1.000000*%
G04 APERTURE END LIST*
D10*
%TO.C,R1*%
X141685000Y-110490000D03*
X143510000Y-110490000D03*
%TD*%
D11*
%TO.C,D1*%
X141700000Y-107495000D03*
X143575000Y-107495000D03*
%TD*%
D12*
%TO.C,U1*%
X149501100Y-106003600D03*
D13*
X147301100Y-103003600D03*
X147701100Y-103003600D03*
X148101100Y-103003600D03*
X148501100Y-103003600D03*
X148901100Y-103003600D03*
X149301100Y-103003600D03*
X149701100Y-103003600D03*
X150101100Y-103003600D03*
X150501100Y-103003600D03*
X150901100Y-103003600D03*
X151301100Y-103003600D03*
X151701100Y-103003600D03*
D14*
X152501100Y-103803600D03*
X152501100Y-104203600D03*
X152501100Y-104603600D03*
X152501100Y-105003600D03*
X152501100Y-105403600D03*
X152501100Y-105803600D03*
X152501100Y-106203600D03*
X152501100Y-106603600D03*
X152501100Y-107003600D03*
X152501100Y-107403600D03*
X152501100Y-107803600D03*
X152501100Y-108203600D03*
D15*
X151701100Y-109003600D03*
X151301100Y-109003600D03*
X150901100Y-109003600D03*
X150501100Y-109003600D03*
X150101100Y-109003600D03*
X149701100Y-109003600D03*
X149301100Y-109003600D03*
X148901100Y-109003600D03*
X148501100Y-109003600D03*
X148101100Y-109003600D03*
X147701100Y-109003600D03*
X147301100Y-109003600D03*
D16*
X146501100Y-108203600D03*
X146501100Y-107803600D03*
X146501100Y-107403600D03*
X146501100Y-107003600D03*
X146501100Y-106603600D03*
X146501100Y-106203600D03*
X146501100Y-105803600D03*
X146501100Y-105403600D03*
X146501100Y-105003600D03*
X146501100Y-104603600D03*
X146501100Y-104203600D03*
X146501100Y-103803600D03*
%TD*%
D17*
%TO.C,X1*%
X156026100Y-101378600D03*
X154576100Y-101378600D03*
X154576100Y-100228600D03*
X156026100Y-100228600D03*
%TD*%
D18*
%TO.C,L1*%
X156851100Y-106553600D03*
X155751100Y-106553600D03*
%TD*%
%TO.C,C2*%
X153301100Y-100253600D03*
X153301100Y-101353600D03*
%TD*%
%TO.C,C1*%
X157301100Y-101353600D03*
X157301100Y-100253600D03*
%TD*%
%TO.C,C3*%
X154701100Y-105453600D03*
X154701100Y-106553600D03*
%TD*%
%TO.C,C4*%
X144351100Y-103603600D03*
X145451100Y-103603600D03*
%TD*%
%TO.C,C5*%
X146001100Y-110103600D03*
X147101100Y-110103600D03*
%TD*%
%TO.C,C8*%
X152301100Y-100253600D03*
X152301100Y-101353600D03*
%TD*%
%TO.C,C6*%
X155851100Y-103703600D03*
X154751100Y-103703600D03*
%TD*%
%TO.C,C7*%
X155851100Y-102703600D03*
X154751100Y-102703600D03*
%TD*%
D19*
%TO.C,C9*%
X144101100Y-102303600D03*
X145701100Y-102303600D03*
%TD*%
D20*
%TO.C,C10*%
X147701100Y-99903600D03*
X147701100Y-101503600D03*
%TD*%
D21*
%TO.C,X2*%
X140901100Y-103653600D03*
X140901100Y-101153600D03*
%TD*%
D18*
%TO.C,C11*%
X139201100Y-101153600D03*
X139201100Y-100053600D03*
%TD*%
%TO.C,C12*%
X139201100Y-103653600D03*
X139201100Y-102553600D03*
%TD*%
%TO.C,L3*%
X145451100Y-98803600D03*
X144351100Y-98803600D03*
%TD*%
D19*
%TO.C,L2*%
X144101100Y-100103600D03*
X145701100Y-100103600D03*
%TD*%
M02*
